<?xml version="1.0" encoding="UTF-8"?>
<svg xmlns="http://www.w3.org/2000/svg" xmlns:xlink="http://www.w3.org/1999/xlink" width="750pt" height="749.999995pt" viewBox="0 0 750 749.999995" version="1.2">
<defs>
<clipPath id="clip1">
  <path d="M 27.929688 27.929688 L 722.429688 27.929688 L 722.429688 722.429688 L 27.929688 722.429688 Z M 27.929688 27.929688 "/>
</clipPath>
</defs>
<g id="surface1">
<g clip-path="url(#clip1)" clip-rule="nonzero">
<path style=" stroke:none;fill-rule:nonzero;fill:rgb(0%,0%,0%);fill-opacity:1;" d="M 375.359375 27.929688 C 184.273438 27.929688 27.929688 184.273438 27.929688 375.359375 C 27.929688 566.449219 184.273438 722.792969 375.359375 722.792969 C 566.449219 722.792969 722.792969 566.449219 722.792969 375.359375 C 722.792969 184.273438 566.449219 27.929688 375.359375 27.929688 Z M 420.527344 535.179688 L 357.988281 535.179688 L 357.988281 288.503906 L 281.554688 312.824219 L 281.554688 260.707031 L 413.578125 212.066406 L 420.527344 212.066406 Z M 653.304688 375.359375 C 653.304688 528.855469 528.855469 653.304688 375.359375 653.304688 C 221.863281 653.304688 97.414062 528.855469 97.414062 375.359375 C 97.414062 221.863281 221.863281 97.414062 375.359375 97.414062 C 528.855469 97.414062 653.304688 221.863281 653.304688 375.359375 Z M 653.304688 375.359375 "/>
</g>
</g>
</svg>
