<?xml version="1.0" encoding="UTF-8"?>
<svg xmlns="http://www.w3.org/2000/svg" xmlns:xlink="http://www.w3.org/1999/xlink" width="750pt" height="749.999995pt" viewBox="0 0 750 749.999995" version="1.2">
<defs>
<clipPath id="clip1">
  <path d="M 27.929688 27.929688 L 722.429688 27.929688 L 722.429688 722.429688 L 27.929688 722.429688 Z M 27.929688 27.929688 "/>
</clipPath>
</defs>
<g id="surface1">
<g clip-path="url(#clip1)" clip-rule="nonzero">
<path style=" stroke:none;fill-rule:nonzero;fill:rgb(0%,0%,0%);fill-opacity:1;" d="M 375.359375 27.929688 C 183.492188 27.929688 27.929688 183.492188 27.929688 375.359375 C 27.929688 567.230469 183.492188 722.792969 375.359375 722.792969 C 567.230469 722.792969 722.792969 567.230469 722.792969 375.359375 C 722.792969 183.492188 567.230469 27.929688 375.359375 27.929688 Z M 480.054688 520.125 L 274.027344 520.125 L 274.027344 478.375 L 367.253906 387.144531 C 407.441406 347.941406 417.515625 333.117188 417.515625 314.5 C 417.515625 291.542969 398.898438 275.300781 372.785156 275.300781 C 345.074219 275.300781 326.082031 293.511719 326.082031 319.828125 L 326.082031 321.015625 L 270.667969 321.015625 L 270.667969 320.03125 C 270.667969 264.820312 313.023438 227.210938 374.78125 227.210938 C 434.367188 227.210938 475.914062 261.460938 475.914062 310.535156 C 475.914062 341.601562 459.089844 368.324219 409.609375 414.851562 L 354.976562 466.910156 L 354.976562 470.46875 L 480.054688 470.46875 Z M 664.886719 375.359375 C 664.886719 535.265625 535.265625 664.886719 375.359375 664.886719 C 215.453125 664.886719 85.832031 535.265625 85.832031 375.359375 C 85.832031 215.453125 215.453125 85.832031 375.359375 85.832031 C 535.265625 85.832031 664.886719 215.453125 664.886719 375.359375 Z M 664.886719 375.359375 "/>
</g>
</g>
</svg>
