<?xml version="1.0" encoding="UTF-8"?>
<svg xmlns="http://www.w3.org/2000/svg" xmlns:xlink="http://www.w3.org/1999/xlink" width="750pt" height="749.999995pt" viewBox="0 0 750 749.999995" version="1.2">
<defs>
<clipPath id="clip1">
  <path d="M 27.699219 27.699219 L 722.105469 27.699219 L 722.105469 722.105469 L 27.699219 722.105469 Z M 27.699219 27.699219 "/>
</clipPath>
</defs>
<g id="surface1">
<g clip-path="url(#clip1)" clip-rule="nonzero">
<path style=" stroke:none;fill-rule:nonzero;fill:rgb(0%,0%,0%);fill-opacity:1;" d="M 374.902344 27.699219 C 183.160156 27.699219 27.699219 183.160156 27.699219 374.902344 C 27.699219 566.648438 183.160156 722.105469 374.902344 722.105469 C 566.648438 722.105469 722.105469 566.648438 722.105469 374.902344 C 722.105469 183.160156 566.648438 27.699219 374.902344 27.699219 Z M 373.515625 524.925781 C 309.832031 524.925781 266.722656 489.710938 264.144531 435.925781 L 321.320312 435.925781 C 323.113281 460.054688 343.480469 475.273438 374.121094 475.273438 C 403.980469 475.273438 424.757812 458.464844 424.757812 434.132812 C 424.757812 409.21875 405.167969 393.769531 373.140625 393.769531 L 337.722656 393.769531 L 337.722656 349.269531 L 372.53125 349.269531 C 399.640625 349.269531 418.015625 333.441406 418.015625 310.09375 C 418.015625 287.148438 400.222656 272.507812 372.328125 272.507812 C 344.640625 272.507812 326.238281 288.132812 324.675781 312.871094 L 269.5 312.871094 C 271.464844 258.878906 311.625 224.855469 373.921875 224.855469 C 432.453125 224.855469 474.582031 256.882812 474.582031 301.789062 C 474.582031 334.832031 453.804688 360.523438 421.980469 367.0625 L 421.980469 370.621094 C 461.15625 374.960938 485.660156 401.089844 485.660156 438.671875 C 485.660156 488.730469 438.585938 524.925781 373.515625 524.925781 Z M 664.238281 374.902344 C 664.238281 534.703125 534.703125 664.238281 374.902344 664.238281 C 215.105469 664.238281 85.566406 534.703125 85.566406 374.902344 C 85.566406 215.105469 215.105469 85.566406 374.902344 85.566406 C 534.703125 85.566406 664.238281 215.105469 664.238281 374.902344 Z M 664.238281 374.902344 "/>
</g>
</g>
</svg>
