<svg width="422" height="208" viewBox="0 0 422 208" fill="none" xmlns="http://www.w3.org/2000/svg">
<g clip-path="url(#clip0)">
<path d="M89 163.5L71.1 153.2V159L89 169.3L110.1 157.1V151.3L110 151.4L89 163.5Z" fill="black"/>
<path d="M71.1 93.6V96H110.1V91H71.1V93.6Z" fill="black"/>
<path d="M42.1 110.3L63.4 97.9L66.1 96.4V93.6V91H65.5L60.9 93.6L42.1 104.5V105.7V110.3Z" fill="black"/>
<path d="M140.5 107.2L117 93.6L115.1 92.5V98.3L138 111.5L140 112.7V134L138 135.2L115.1 148.5V154.2L117 153.1L140.5 139.5L145 136.9V109.8L140.5 107.2Z" fill="black"/>
<path d="M63.4 148.8L42.1 136.5V142.2L60.9 153.1L65.5 155.7L66.1 156.1V150.3L63.4 148.8Z" fill="black"/>
<path d="M35.4 132.6L19.4 123.4L35.4 114.1L37.1 113.1V107.4L32.9 109.8L9.40002 123.4L32.9 136.9L37.1 139.3V133.6L35.4 132.6Z" fill="black"/>
<path d="M37.1 105.7V107.4L37.4 107.2L42.1 104.5V66.4V38.7L38 36.4L37.1 35.8V66.4V105.7Z" fill="black"/>
<path d="M66.1 91H71.1V86.1V55.4L66.1 52.6V86.1V91Z" fill="black"/>
<path d="M42.1 113.2V110.3L39.9 111.5L37.1 113.1V113.2V125.3V133.6L39.9 135.2L42.1 136.5V125.3V113.2Z" fill="black"/>
<path d="M66.1 96.4V105.7V150.3L68 151.4L71.1 153.2V105.7V96H66.8L66.1 96.4Z" fill="black"/>
<path d="M37.4 139.5L37.1 139.3V157.1L42.1 160V142.2L37.4 139.5Z" fill="black"/>
<path d="M66.1 185.4L42.1 199.3V165.8L37.1 162.9V207.9L71.1 188.3V182.5L66.1 179.7V185.4Z" fill="black"/>
<path d="M66.1 156.1V173.9L71.1 176.8V159L66.1 156.1Z" fill="black"/>
<path d="M40.5 32L42.1 32.9V22.5L66.1 8.7V46.8L66.9 47.3L71.1 49.7V46.8V0L37.1 19.6V30L40.5 32Z" fill="black"/>
<path d="M39.9 135.2L37.1 133.6V139.3L37.4 139.5L42.1 142.2V136.5L39.9 135.2Z" fill="black"/>
<path d="M66.1 150.3V156.1L71.1 159V153.2L68 151.4L66.1 150.3Z" fill="black"/>
<path d="M39.9 111.5L42.1 110.3V105.7V104.5L37.4 107.2L37.1 107.4V113.1L39.9 111.5Z" fill="black"/>
<path d="M71.1 91H66.1V93.6V96.4L66.8 96H71.1V93.6V91Z" fill="black"/>
<path d="M111.1 96H110.1V114.3V121.9V151.3L114.5 148.8L115.1 148.5V121.9V114.3V98.3L114.5 97.9L111.1 96Z" fill="black"/>
<path d="M110.1 157.1V161.1V168.7V199.3L83.6 184L77 180.2L74.2 178.6L71.1 176.8V182.5L71.7 182.9L74.5 184.5L81.1 188.3L115.1 207.9V168.7V161.1V154.2L112.5 155.7L110.1 157.1Z" fill="black"/>
<path d="M5 138.6V102.2V94.7V55.4V47.9V17.3L31.5 32.6L37.1 35.8V30L34 28.2L0 8.60001V47.9V55.4V94.7V102.2V141.5L37.1 162.9V157.1L5 138.6Z" fill="black"/>
<path d="M64.4 51.6L66.1 52.6V46.8L42.1 32.9V38.7L42.8 39.1L64.4 51.6Z" fill="black"/>
<path d="M42.1 165.8L66.1 179.7V173.9L42.1 160V165.8Z" fill="black"/>
<path d="M110.1 77.9V91H112.5L115.1 92.5V75.1L71.1 49.7V55.4L110.1 77.9Z" fill="black"/>
<path d="M114.5 148.8L110.1 151.3V157.1L112.5 155.7L115.1 154.2V148.5L114.5 148.8Z" fill="black"/>
<path d="M110.1 91V96H111.1L114.5 97.9L115.1 98.3V92.5L112.5 91H110.1Z" fill="black"/>
<path d="M66.1 46.8V52.6L71.1 55.4V49.7L66.9 47.3L66.1 46.8Z" fill="black"/>
<path d="M42.1 160L37.1 157.1V162.9L42.1 165.8V160Z" fill="black"/>
<path d="M38 36.4L42.1 38.7V32.9L40.5 32L37.1 30V35.8L38 36.4Z" fill="black"/>
<path d="M66.1 173.9V179.7L71.1 182.5V176.8L66.1 173.9Z" fill="black"/>
<path d="M198 0V61.1H192.4V33.1H182.4V61H176.8V0H182.4V28.5H192.4V0H198Z" fill="black"/>
<path d="M222.2 47.6H211.1L209.5 61H204.1L211.7 0H221.7L229.2 61.1H223.8L222.2 47.6ZM221.6 42.9L217.1 5H216.2L211.7 42.9H221.6Z" fill="black"/>
<path d="M251.8 56.3V61H235.3V0H240.9V56.3H251.8Z" fill="black"/>
<path d="M258.6 0H264.2V61.1H258.6V0Z" fill="black"/>
<path d="M276.9 4.7V28.4H286.9V33H276.9V61H271.3V0H286.8V4.7H276.9Z" fill="black"/>
<path d="M309.5 47.6H298.4L296.8 61H291.4L298.9 0H308.9L316.4 61.1H311L309.5 47.6ZM308.9 42.9L304.4 5H303.5L299 42.9H308.9Z" fill="black"/>
<path d="M339.6 61.1L333.3 35.1H333L326.7 61.1H321.2L329.2 30L321.6 0H327.1L333.1 25H333.4L339.4 0H344.9L337.2 30L345.2 61.1H339.6Z" fill="black"/>
<path d="M176.9 72.7H182.5V133.8H176.9V72.7Z" fill="black"/>
<path d="M189.7 72.7H197.3L208.3 125.1H208.8L208.7 119.5V72.7H213.9V133.8H206.3L195.3 81.4H194.8L194.9 87V133.7H189.7V72.7Z" fill="black"/>
<path d="M221 72.7H228.6L239.6 125.1H240.1L240 119.5V72.7H245.2V133.8H237.6L226.6 81.4H226.1L226.2 87V133.7H221V72.7Z" fill="black"/>
<path d="M273.2 82.8V123.7C273.2 131.9 268.7 134.4 262.8 134.4C256.8 134.4 252.3 131.9 252.3 123.7V82.8C252.3 74.6 256.8 72.1 262.8 72.1C268.7 72.1 273.2 74.6 273.2 82.8ZM262.8 76.8C260.1 76.8 257.9 78.3 257.9 82.8V123.7C257.9 128.2 260.1 129.7 262.8 129.7C265.5 129.7 267.7 128.2 267.7 123.7V82.8C267.7 78.3 265.5 76.8 262.8 76.8Z" fill="black"/>
<path d="M283.5 72.7L290.2 128.7H291.1L297.8 72.7H303.2L295.7 133.8H285.7L278.2 72.7H283.5Z" fill="black"/>
<path d="M323.6 133.8L316.9 77.8H316L309.3 133.8H303.9L311.4 72.7H321.4L328.9 133.8H323.6Z" fill="black"/>
<path d="M350.6 77.4H342.9V133.7H337.3V77.4H329.6V72.7H350.6V77.4Z" fill="black"/>
<path d="M356.9 72.7H362.5V133.8H356.9V72.7Z" fill="black"/>
<path d="M390.5 82.8V123.7C390.5 131.9 386 134.4 380.1 134.4C374.1 134.4 369.6 131.9 369.6 123.7V82.8C369.6 74.6 374.1 72.1 380.1 72.1C386 72.1 390.5 74.6 390.5 82.8ZM380.1 76.8C377.4 76.8 375.2 78.3 375.2 82.8V123.7C375.2 128.2 377.4 129.7 380.1 129.7C382.8 129.7 385 128.2 385 123.7V82.8C385 78.3 382.7 76.8 380.1 76.8Z" fill="black"/>
<path d="M397.7 72.7H405.3L416.3 125.1H416.8L416.7 119.5V72.7H421.9V133.8H414.3L403.3 81.4H402.8L402.9 87V133.7H397.7V72.7Z" fill="black"/>
<path d="M197.8 156.2V195.8C197.8 203.2 196.3 206.6 188.1 206.6H176.9V145.5H188.1C196.3 145.4 197.8 148.8 197.8 156.2ZM192.3 156.1C192.3 151.4 191.1 150.1 187.1 150.1H182.6V201.7H187.1C191.1 201.7 192.3 200.4 192.3 195.7V156.1Z" fill="black"/>
<path d="M205 145.4H210.6V206.5H205V145.4Z" fill="black"/>
<path d="M232.9 164.5V155.4C232.9 150.9 230.8 149.5 228.1 149.5C225.4 149.5 223.3 150.9 223.3 155.4V163.4C223.3 174.9 238.5 173.4 238.5 188.1V196.4C238.5 204.4 234.1 207 228.1 207C222.1 207 217.7 204.4 217.7 196.4V187.3H223.1V196.4C223.1 200.9 225.2 202.3 228.1 202.3C230.8 202.3 233 200.9 233 196.4V188.4C233 176.9 217.8 178.4 217.8 163.7V155.4C217.8 147.4 222.1 144.8 228.1 144.8C234.1 144.8 238.3 147.4 238.3 155.4V164.5H232.9Z" fill="black"/>
<path d="M263.3 150.1H255.6V206.4H250V150.1H242.3V145.4H263.3V150.1Z" fill="black"/>
<path d="M286 206.5L281.4 186.3H275.1V206.5H269.5V145.4H280.5C288.6 145.4 290.1 148.8 290.1 156.2V175.8C290.1 180.4 288.8 183.4 286.1 185L291.1 206.5H286ZM280.7 181.9C283.7 181.6 284.6 180.1 284.6 175.9V156C284.6 151.4 283.4 150 279.4 150H275V182L280.7 181.9Z" fill="black"/>
<path d="M296.9 145.4H302.5V206.5H296.9V145.4Z" fill="black"/>
<path d="M330.5 196.5C330.5 204.7 326 207.2 320.1 207.2C314.1 207.2 309.6 204.7 309.6 196.5V155.6C309.6 147.4 314.1 144.9 320.1 144.9C326 144.9 330.5 147.4 330.5 155.6V165H325V155.6C325 151.1 322.7 149.6 320.1 149.6C317.4 149.6 315.2 151.1 315.2 155.6V196.5C315.2 201.1 317.4 202.5 320.1 202.5C322.8 202.5 325 201.1 325 196.5V187H330.5V196.5Z" fill="black"/>
<path d="M355.6 150.1H347.9V206.4H342.3V150.1H334.6V145.4H355.6V150.1Z" fill="black"/>
</g>
<defs>
<clipPath id="clip0">
<rect width="421.8" height="207.9" fill="white"/>
</clipPath>
</defs>
</svg>
