<?xml version="1.0" encoding="utf-8"?>
<!-- Generator: Adobe Illustrator 23.0.2, SVG Export Plug-In . SVG Version: 6.00 Build 0)  -->
<svg version="1.1" id="Layer_1" xmlns="http://www.w3.org/2000/svg" xmlns:xlink="http://www.w3.org/1999/xlink" x="0px" y="0px"
	 viewBox="0 0 421.8 207.9" style="enable-background:new 0 0 421.8 207.9;" xml:space="preserve">
<style type="text/css">
	.st0{fill:none;}
	.st1{fill:#FFFFFF;}
	.st2{fill:#FFA400;}
</style>
<g>
	<polygon class="st0" points="115.1,121.9 115.1,148.5 138,135.2 140,134 140,112.7 138,111.5 115.1,98.3 115.1,114.3 	"/>
	<polygon class="st0" points="32.9,136.9 9.4,123.4 32.9,109.8 37.1,107.4 37.1,105.7 37.1,66.4 37.1,35.8 31.5,32.6 5,17.3 5,47.9 
		5,55.4 5,94.7 5,102.2 5,138.6 37.1,157.1 37.1,139.3 	"/>
	<polygon class="st0" points="71.1,159 71.1,176.8 74.2,178.6 77,180.2 83.6,184 110.1,199.3 110.1,168.7 110.1,161.1 110.1,157.1 
		89,169.3 	"/>
	<polygon class="st0" points="71.1,91 110.1,91 110.1,77.9 71.1,55.4 71.1,86.1 	"/>
	<polygon class="st0" points="42.1,110.3 42.1,113.2 42.1,125.3 42.1,136.5 63.4,148.8 66.1,150.3 66.1,105.7 66.1,96.4 63.4,97.9 	
		"/>
	<polygon class="st0" points="110.1,114.3 110.1,96 71.1,96 71.1,105.7 71.1,153.2 89,163.5 110,151.4 110.1,151.3 110.1,121.9 	"/>
	<polygon class="st0" points="42.1,199.3 66.1,185.4 66.1,179.7 42.1,165.8 	"/>
	<polygon class="st0" points="42.1,104.5 60.9,93.6 65.5,91 66.1,91 66.1,86.1 66.1,52.6 64.4,51.6 42.8,39.1 42.1,38.7 42.1,66.4 	
		"/>
	<polygon class="st0" points="66.1,8.7 42.1,22.5 42.1,32.9 66.1,46.8 	"/>
	<polygon class="st0" points="65.5,155.7 60.9,153.1 42.1,142.2 42.1,160 66.1,173.9 66.1,156.1 	"/>
	<polygon class="st0" points="37.1,113.2 37.1,113.1 35.4,114.1 19.4,123.4 35.4,132.6 37.1,133.6 37.1,125.3 	"/>
	<polygon class="st1" points="89,163.5 71.1,153.2 71.1,159 89,169.3 110.1,157.1 110.1,151.3 110,151.4 	"/>
	<polygon class="st1" points="71.1,93.6 71.1,96 110.1,96 110.1,91 71.1,91 	"/>
	<polygon class="st1" points="42.1,110.3 63.4,97.9 66.1,96.4 66.1,93.6 66.1,91 65.5,91 60.9,93.6 42.1,104.5 42.1,105.7 	"/>
	<polygon class="st1" points="140.5,107.2 117,93.6 115.1,92.5 115.1,98.3 138,111.5 140,112.7 140,134 138,135.2 115.1,148.5 
		115.1,154.2 117,153.1 140.5,139.5 145,136.9 145,109.8 	"/>
	<polygon class="st1" points="63.4,148.8 42.1,136.5 42.1,142.2 60.9,153.1 65.5,155.7 66.1,156.1 66.1,150.3 	"/>
	<polygon class="st1" points="35.4,132.6 19.4,123.4 35.4,114.1 37.1,113.1 37.1,107.4 32.9,109.8 9.4,123.4 32.9,136.9 37.1,139.3 
		37.1,133.6 	"/>
	<polygon class="st2" points="37.1,105.7 37.1,107.4 37.4,107.2 42.1,104.5 42.1,66.4 42.1,38.7 38,36.4 37.1,35.8 37.1,66.4 	"/>
	<polygon class="st2" points="66.1,91 71.1,91 71.1,86.1 71.1,55.4 66.1,52.6 66.1,86.1 	"/>
	<polygon class="st2" points="42.1,113.2 42.1,110.3 39.9,111.5 37.1,113.1 37.1,113.2 37.1,125.3 37.1,133.6 39.9,135.2 
		42.1,136.5 42.1,125.3 	"/>
	<polygon class="st2" points="66.1,96.4 66.1,105.7 66.1,150.3 68,151.4 71.1,153.2 71.1,105.7 71.1,96 66.8,96 	"/>
	<polygon class="st2" points="37.4,139.5 37.1,139.3 37.1,157.1 42.1,160 42.1,142.2 	"/>
	<polygon class="st2" points="66.1,185.4 42.1,199.3 42.1,165.8 37.1,162.9 37.1,207.9 71.1,188.3 71.1,182.5 66.1,179.7 	"/>
	<polygon class="st2" points="66.1,156.1 66.1,173.9 71.1,176.8 71.1,159 	"/>
	<polygon class="st2" points="40.5,32 42.1,32.9 42.1,22.5 66.1,8.7 66.1,46.8 66.9,47.3 71.1,49.7 71.1,46.8 71.1,0 37.1,19.6 
		37.1,30 40.5,32 	"/>
	<polygon class="st2" points="39.9,135.2 37.1,133.6 37.1,139.3 37.4,139.5 42.1,142.2 42.1,136.5 	"/>
	<polygon class="st1" points="66.1,150.3 66.1,156.1 71.1,159 71.1,153.2 68,151.4 	"/>
	<polygon class="st2" points="39.9,111.5 42.1,110.3 42.1,105.7 42.1,104.5 37.4,107.2 37.1,107.4 37.1,113.1 	"/>
	<polygon class="st2" points="71.1,91 66.1,91 66.1,93.6 66.1,96.4 66.8,96 71.1,96 71.1,93.6 	"/>
	<polygon class="st1" points="111.1,96 110.1,96 110.1,114.3 110.1,121.9 110.1,151.3 114.5,148.8 115.1,148.5 115.1,121.9 
		115.1,114.3 115.1,98.3 114.5,97.9 	"/>
	<polygon class="st1" points="110.1,157.1 110.1,161.1 110.1,168.7 110.1,199.3 83.6,184 77,180.2 74.2,178.6 71.1,176.8 
		71.1,182.5 71.7,182.9 74.5,184.5 74.5,184.5 81.1,188.3 115.1,207.9 115.1,168.7 115.1,161.1 115.1,154.2 112.5,155.7 	"/>
	<polygon class="st1" points="5,138.6 5,102.2 5,94.7 5,55.4 5,47.9 5,17.3 31.5,32.6 37.1,35.8 37.1,30 34,28.2 0,8.6 0,47.9 
		0,55.4 0,94.7 0,102.2 0,141.5 37.1,162.9 37.1,157.1 	"/>
	<polygon class="st1" points="64.4,51.6 66.1,52.6 66.1,46.8 66.1,46.8 42.1,32.9 42.1,38.7 42.8,39.1 	"/>
	<polygon class="st1" points="42.1,165.8 66.1,179.7 66.1,173.9 42.1,160 	"/>
	<polygon class="st1" points="110.1,77.9 110.1,91 112.5,91 115.1,92.5 115.1,75.1 71.1,49.7 71.1,55.4 	"/>
	<polygon class="st1" points="114.5,148.8 110.1,151.3 110.1,157.1 112.5,155.7 115.1,154.2 115.1,148.5 	"/>
	<polygon class="st1" points="110.1,91 110.1,96 111.1,96 114.5,97.9 115.1,98.3 115.1,92.5 112.5,91 	"/>
	<polygon class="st1" points="66.1,46.8 66.1,46.8 66.1,52.6 71.1,55.4 71.1,49.7 66.9,47.3 	"/>
	<polygon class="st2" points="42.1,160 37.1,157.1 37.1,162.9 42.1,165.8 	"/>
	<polygon class="st2" points="38,36.4 42.1,38.7 42.1,32.9 40.5,32 40.5,32 37.1,30 37.1,35.8 	"/>
	<polygon class="st1" points="66.1,173.9 66.1,179.7 71.1,182.5 71.1,176.8 	"/>
</g>
<g>
	<path class="st1" d="M198,0v61.1h-5.6V33.1h-10v27.9h-5.6V0h5.6v28.5h10V0H198z"/>
	<path class="st1" d="M222.2,47.6h-11.1l-1.6,13.4h-5.4L211.7,0h10l7.5,61.1h-5.4L222.2,47.6z M221.6,42.9L217.1,5h-0.9l-4.5,37.9
		H221.6z"/>
	<path class="st1" d="M251.8,56.3v4.7h-16.5V0h5.6v56.3H251.8z"/>
	<path class="st1" d="M258.6,0h5.6v61.1h-5.6V0z"/>
	<path class="st1" d="M276.9,4.7v23.7h10V33h-10v28h-5.6V0h15.5v4.7H276.9z"/>
	<path class="st1" d="M309.5,47.6h-11.1l-1.6,13.4h-5.4L298.9,0h10l7.5,61.1h-5.4L309.5,47.6z M308.9,42.9L304.4,5h-0.9L299,42.9
		H308.9z"/>
	<path class="st1" d="M339.6,61.1l-6.3-26H333l-6.3,26h-5.5l8-31.1l-7.6-30h5.5l6,25h0.3l6-25h5.5l-7.7,30l8,31.1H339.6z"/>
	<path class="st1" d="M176.9,72.7h5.6v61.1h-5.6V72.7z"/>
	<path class="st1" d="M189.7,72.7h7.6l11,52.4h0.5l-0.1-5.6V72.7h5.2v61.1h-7.6l-11-52.4h-0.5l0.1,5.6v46.7h-5.2V72.7z"/>
	<path class="st1" d="M221,72.7h7.6l11,52.4h0.5l-0.1-5.6V72.7h5.2v61.1h-7.6l-11-52.4h-0.5l0.1,5.6v46.7H221V72.7z"/>
	<path class="st1" d="M273.2,82.8v40.9c0,8.2-4.5,10.7-10.4,10.7c-6,0-10.5-2.5-10.5-10.7V82.8c0-8.2,4.5-10.7,10.5-10.7
		C268.7,72.1,273.2,74.6,273.2,82.8z M262.8,76.8c-2.7,0-4.9,1.5-4.9,6v40.9c0,4.5,2.2,6,4.9,6c2.7,0,4.9-1.5,4.9-6V82.8
		C267.7,78.3,265.5,76.8,262.8,76.8z"/>
	<path class="st1" d="M283.5,72.7l6.7,56h0.9l6.7-56h5.4l-7.5,61.1h-10l-7.5-61.1H283.5z"/>
	<path class="st1" d="M323.6,133.8l-6.7-56H316l-6.7,56h-5.4l7.5-61.1h10l7.5,61.1H323.6z"/>
	<path class="st1" d="M350.6,77.4h-7.7v56.3h-5.6V77.4h-7.7v-4.7h21V77.4z"/>
	<path class="st1" d="M356.9,72.7h5.6v61.1h-5.6V72.7z"/>
	<path class="st1" d="M390.5,82.8v40.9c0,8.2-4.5,10.7-10.4,10.7c-6,0-10.5-2.5-10.5-10.7V82.8c0-8.2,4.5-10.7,10.5-10.7
		C386,72.1,390.5,74.6,390.5,82.8z M380.1,76.8c-2.7,0-4.9,1.5-4.9,6v40.9c0,4.5,2.2,6,4.9,6c2.7,0,4.9-1.5,4.9-6V82.8
		C385,78.3,382.7,76.8,380.1,76.8z"/>
	<path class="st1" d="M397.7,72.7h7.6l11,52.4h0.5l-0.1-5.6V72.7h5.2v61.1h-7.6l-11-52.4h-0.5l0.1,5.6v46.7h-5.2V72.7z"/>
	<path class="st1" d="M197.8,156.2v39.6c0,7.4-1.5,10.8-9.7,10.8h-11.2v-61.1h11.2C196.3,145.4,197.8,148.8,197.8,156.2z
		 M192.3,156.1c0-4.7-1.2-6-5.2-6h-4.5v51.6h4.5c4,0,5.2-1.3,5.2-6V156.1z"/>
	<path class="st1" d="M205,145.4h5.6v61.1H205V145.4z"/>
	<path class="st1" d="M232.9,164.5v-9.1c0-4.5-2.1-5.9-4.8-5.9s-4.8,1.4-4.8,5.9v8c0,11.5,15.2,10,15.2,24.7v8.3
		c0,8-4.4,10.6-10.4,10.6s-10.4-2.6-10.4-10.6v-9.1h5.4v9.1c0,4.5,2.1,5.9,5,5.9c2.7,0,4.9-1.4,4.9-5.9v-8c0-11.5-15.2-10-15.2-24.7
		v-8.3c0-8,4.3-10.6,10.3-10.6s10.2,2.6,10.2,10.6v9.1H232.9z"/>
	<path class="st1" d="M263.3,150.1h-7.7v56.3H250v-56.3h-7.7v-4.7h21V150.1z"/>
	<path class="st1" d="M286,206.5l-4.6-20.2h-6.3v20.2h-5.6v-61.1h11c8.1,0,9.6,3.4,9.6,10.8v19.6c0,4.6-1.3,7.6-4,9.2l5,21.5H286z
		 M280.7,181.9c3-0.3,3.9-1.8,3.9-6V156c0-4.6-1.2-6-5.2-6h-4.4V182L280.7,181.9z"/>
	<path class="st1" d="M296.9,145.4h5.6v61.1h-5.6V145.4z"/>
	<path class="st1" d="M330.5,196.5c0,8.2-4.5,10.7-10.4,10.7c-6,0-10.5-2.5-10.5-10.7v-40.9c0-8.2,4.5-10.7,10.5-10.7
		c5.9,0,10.4,2.5,10.4,10.7v9.4H325v-9.4c0-4.5-2.3-6-4.9-6c-2.7,0-4.9,1.5-4.9,6v40.9c0,4.6,2.2,6,4.9,6c2.7,0,4.9-1.4,4.9-6v-9.5
		h5.5V196.5z"/>
	<path class="st1" d="M355.6,150.1h-7.7v56.3h-5.6v-56.3h-7.7v-4.7h21V150.1z"/>
</g>
</svg>
