<?xml version="1.0" encoding="UTF-8"?>
<svg xmlns="http://www.w3.org/2000/svg" xmlns:xlink="http://www.w3.org/1999/xlink" width="15px" height="15px" viewBox="0 0 750 749.999995" version="1.2">
<defs>
<clipPath id="clip1">
  <path d="M 35.882812 35.882812 L 713.882812 35.882812 L 713.882812 713.882812 L 35.882812 713.882812 Z M 35.882812 35.882812 "/>
</clipPath>
</defs>
<g id="surface1">
<g clip-path="url(#clip1)" clip-rule="nonzero">
<path style=" stroke:none;fill-rule:nonzero;fill:rgb(85.879517%,85.879517%,85.879517%);fill-opacity:1;" d="M 676.804688 321.914062 L 427.851562 321.914062 L 427.851562 73.492188 C 427.851562 52.835938 411.433594 35.882812 390.773438 35.882812 L 358.992188 35.882812 C 338.335938 35.882812 321.914062 52.835938 321.914062 73.492188 L 321.914062 321.914062 L 72.960938 321.914062 C 52.304688 321.914062 35.882812 338.335938 35.882812 358.992188 L 35.882812 390.773438 C 35.882812 411.433594 52.304688 427.851562 72.960938 427.851562 L 321.914062 427.851562 L 321.914062 677.335938 C 321.914062 697.992188 338.335938 713.882812 358.992188 713.882812 L 390.773438 713.882812 C 411.433594 713.882812 427.851562 697.464844 427.851562 677.335938 L 427.851562 427.851562 L 676.804688 427.851562 C 697.464844 427.851562 713.882812 411.433594 713.882812 390.773438 L 713.882812 358.992188 C 713.882812 338.335938 697.464844 321.914062 676.804688 321.914062 Z M 676.804688 321.914062 "/>
</g>
</g>
</svg>
