<?xml version="1.0" encoding="UTF-8"?>
<svg xmlns="http://www.w3.org/2000/svg" xmlns:xlink="http://www.w3.org/1999/xlink" width="900pt" height="899.99999pt" viewBox="0 0 900 899.99999" version="1.2">
<defs>
<clipPath id="clip1">
  <path d="M 128 194 L 810 194 L 810 802.246094 L 128 802.246094 Z M 128 194 "/>
</clipPath>
</defs>
<g id="surface1">
<g clip-path="url(#clip1)" clip-rule="nonzero">
<path style=" stroke:none;fill-rule:nonzero;fill:rgb(0%,0%,0%);fill-opacity:1;" d="M 253.816406 690.175781 C 246.300781 695.121094 244.222656 705.222656 249.164062 712.734375 L 303.433594 795.167969 C 305.8125 798.78125 309.527344 801.296875 313.757812 802.171875 C 314.847656 802.394531 315.945312 802.503906 317.042969 802.503906 C 320.199219 802.503906 323.320312 801.585938 326 799.820312 L 802.257812 486.296875 C 805.871094 483.921875 808.382812 480.207031 809.257812 475.976562 C 810.128906 471.742188 809.285156 467.339844 806.914062 463.734375 L 752.636719 381.296875 C 750.257812 377.6875 746.542969 375.167969 742.3125 374.296875 C 738.085938 373.441406 733.679688 374.269531 730.070312 376.648438 C 723.234375 381.144531 715.320312 383.523438 707.191406 383.523438 C 693.078125 383.523438 680.03125 376.503906 672.289062 364.742188 C 659.640625 345.527344 664.980469 319.613281 684.191406 306.964844 C 687.804688 304.589844 690.316406 300.878906 691.191406 296.648438 C 692.0625 292.414062 691.21875 288.011719 688.847656 284.402344 L 634.566406 201.96875 C 629.621094 194.457031 619.523438 192.371094 612 197.320312 L 135.75 510.84375 C 128.230469 515.792969 126.148438 525.894531 131.09375 533.40625 L 185.363281 615.839844 C 187.742188 619.453125 191.457031 621.96875 195.691406 622.84375 C 199.914062 623.707031 204.320312 622.871094 207.933594 620.492188 C 214.773438 615.992188 222.6875 613.609375 230.820312 613.609375 C 244.933594 613.609375 257.976562 620.632812 265.71875 632.390625 C 278.367188 651.601562 273.027344 677.527344 253.816406 690.175781 Z M 230.820312 581.03125 C 221.804688 581.03125 212.945312 582.664062 204.613281 585.820312 L 167.273438 529.101562 L 499.199219 310.589844 L 503.675781 317.390625 C 506.019531 320.960938 509.917969 322.894531 513.890625 322.894531 C 516.195312 322.894531 518.527344 322.242188 520.601562 320.878906 C 526.234375 317.167969 527.792969 309.59375 524.085938 303.957031 L 519.609375 297.152344 L 616.308594 233.492188 L 653.65625 290.214844 C 630.054688 314.664062 625.625 353.117188 645.0625 382.660156 C 658.859375 403.605469 682.078125 416.105469 707.183594 416.105469 C 716.199219 416.105469 725.050781 414.476562 733.390625 411.324219 L 770.730469 468.042969 L 674.027344 531.699219 L 669.550781 524.898438 C 665.84375 519.261719 658.277344 517.71875 652.621094 521.414062 C 646.988281 525.125 645.429688 532.699219 649.136719 538.335938 L 653.617188 545.136719 L 321.6875 763.648438 L 284.34375 706.925781 C 307.945312 682.472656 312.378906 644.023438 292.925781 614.476562 C 279.144531 593.535156 255.925781 581.03125 230.820312 581.03125 Z M 230.820312 581.03125 "/>
</g>
<path style=" stroke:none;fill-rule:nonzero;fill:rgb(0%,0%,0%);fill-opacity:1;" d="M 620.050781 494.148438 C 622.394531 497.710938 626.292969 499.640625 630.265625 499.640625 C 632.570312 499.640625 634.910156 498.988281 636.976562 497.628906 C 642.609375 493.917969 644.167969 486.335938 640.460938 480.703125 L 611.363281 436.515625 C 607.65625 430.882812 600.066406 429.339844 594.433594 433.03125 C 588.800781 436.742188 587.242188 444.320312 590.949219 449.957031 Z M 620.050781 494.148438 "/>
<path style=" stroke:none;fill-rule:nonzero;fill:rgb(0%,0%,0%);fill-opacity:1;" d="M 561.859375 405.761719 C 564.203125 409.332031 568.101562 411.265625 572.074219 411.265625 C 574.378906 411.265625 576.710938 410.613281 578.785156 409.25 C 584.417969 405.539062 585.980469 397.964844 582.269531 392.328125 L 553.179688 348.140625 C 549.472656 342.5 541.90625 340.957031 536.253906 344.652344 C 530.621094 348.363281 529.058594 355.941406 532.769531 361.574219 Z M 561.859375 405.761719 "/>
<path style=" stroke:none;fill-rule:nonzero;fill:rgb(0%,0%,0%);fill-opacity:1;" d="M 483.277344 175.304688 C 487.878906 167.578125 485.347656 157.578125 477.613281 152.976562 L 392.816406 102.488281 C 385.113281 97.910156 375.183594 100.402344 370.550781 108.039062 C 369.292969 110.113281 243.960938 316.832031 171.15625 439.09375 C 166.558594 446.820312 169.089844 456.816406 176.820312 461.417969 C 179.4375 462.976562 182.308594 463.71875 185.140625 463.71875 C 190.695312 463.71875 196.113281 460.875 199.160156 455.757812 C 233.140625 398.6875 278.574219 323.207031 317.484375 258.742188 L 322.328125 261.625 C 324.292969 262.789062 326.441406 263.34375 328.574219 263.34375 C 332.730469 263.34375 336.792969 261.214844 339.082031 257.378906 C 342.535156 251.578125 340.632812 244.078125 334.832031 240.625 L 330.117188 237.816406 C 356.488281 194.15625 378.605469 157.625 390.03125 138.757812 L 448.476562 173.554688 C 444.296875 186.238281 443.761719 199.816406 446.796875 213.105469 C 446.808594 213.242188 446.847656 213.371094 446.867188 213.507812 C 447.007812 214.097656 447.042969 214.695312 447.195312 215.28125 C 447.246094 215.476562 447.34375 215.640625 447.398438 215.832031 C 447.457031 216.023438 447.464844 216.214844 447.53125 216.40625 C 455.035156 238.628906 469.957031 254.265625 489.558594 260.445312 C 491.1875 260.964844 492.832031 261.207031 494.464844 261.207031 C 501.382812 261.207031 507.804688 256.757812 509.992188 249.8125 C 512.695312 241.230469 507.9375 232.082031 499.355469 229.375 C 490.113281 226.460938 482.808594 218.394531 478.675781 206.671875 C 476.011719 195.9375 477.613281 184.820312 483.277344 175.304688 Z M 483.277344 175.304688 "/>
<path style=" stroke:none;fill-rule:nonzero;fill:rgb(0%,0%,0%);fill-opacity:1;" d="M 125 549.253906 C 117.25 544.648438 107.261719 547.191406 102.664062 554.914062 C 91.605469 573.492188 78.851562 597.789062 78.320312 598.816406 C 74.300781 606.476562 76.984375 615.945312 84.414062 620.371094 L 169.222656 670.867188 C 171.765625 672.382812 174.644531 673.160156 177.558594 673.160156 C 178.902344 673.160156 180.246094 672.996094 181.566406 672.660156 C 185.757812 671.59375 189.355469 668.910156 191.566406 665.195312 C 193.378906 662.140625 195.558594 659.34375 198.058594 656.878906 C 204.453125 650.546875 204.503906 640.234375 198.175781 633.839844 C 191.84375 627.445312 181.542969 627.394531 175.132812 633.714844 C 174.5625 634.289062 173.996094 634.871094 173.4375 635.460938 L 114.453125 600.339844 C 119.050781 591.863281 125.152344 580.839844 130.664062 571.585938 C 135.261719 563.855469 132.734375 553.855469 125 549.253906 Z M 125 549.253906 "/>
<path style=" stroke:none;fill-rule:nonzero;fill:rgb(0%,0%,0%);fill-opacity:1;" d="M 368.3125 260.558594 L 355.539062 281.390625 C 355.539062 281.390625 383.46875 298.507812 388.710938 301.632812 C 390.675781 302.796875 392.820312 303.347656 394.953125 303.347656 C 399.113281 303.347656 403.179688 301.21875 405.460938 297.378906 C 408.914062 291.582031 407.011719 284.082031 401.214844 280.628906 C 396.003906 277.535156 368.3125 260.5625 368.3125 260.558594 Z M 368.3125 260.558594 "/>
</g>
</svg>
