<svg width="854" height="565" viewBox="0 0 854 565" fill="none" xmlns="http://www.w3.org/2000/svg">
<path d="M709 99.6631V163.372H707.327V162.693H147.673V163.372H146V99.6631C146.007 92.3286 148.918 85.2966 154.094 80.1103C159.269 74.924 166.287 72.0072 173.606 72H681.394C688.713 72.0072 695.731 74.924 700.906 80.1103C706.082 85.2966 708.993 92.3286 709 99.6631Z" fill="#FFCC5F"/>
<path d="M681.394 72H173.606C166.287 72.0072 159.269 74.9232 154.094 80.108C148.918 85.2928 146.007 92.3229 146 99.6553V463.364C146.007 470.697 148.918 477.727 154.094 482.912C159.269 488.096 166.287 491.012 173.606 491.02H681.394C688.713 491.012 695.731 488.096 700.906 482.912C706.082 477.727 708.993 470.697 709 463.364V99.6553C708.993 92.3229 706.082 85.2928 700.906 80.108C695.731 74.9232 688.713 72.0072 681.394 72V72ZM707.327 463.364C707.318 470.252 704.583 476.855 699.722 481.725C694.86 486.595 688.269 489.335 681.394 489.344H173.606C166.731 489.335 160.14 486.595 155.278 481.725C150.417 476.855 147.682 470.252 147.673 463.364V99.6553C147.682 92.7679 150.417 86.1651 155.278 81.2949C160.14 76.4248 166.731 73.6849 173.606 73.6761H681.394C688.269 73.6849 694.86 76.4248 699.722 81.2949C704.583 86.1651 707.318 92.7679 707.327 99.6553V463.364Z" fill="#B8B8B8"/>
<path d="M259.523 134.761C268.698 134.761 276.136 127.116 276.136 117.686C276.136 108.256 268.698 100.611 259.523 100.611C250.348 100.611 242.91 108.256 242.91 117.686C242.91 127.116 250.348 134.761 259.523 134.761Z" fill="white"/>
<path d="M595.477 134.761C604.652 134.761 612.09 127.116 612.09 117.686C612.09 108.256 604.652 100.611 595.477 100.611C586.302 100.611 578.864 108.256 578.864 117.686C578.864 127.116 586.302 134.761 595.477 134.761Z" fill="white"/>
<path d="M308.147 304.584H208.13C203.892 304.579 199.83 302.891 196.834 299.889C193.838 296.888 192.152 292.818 192.148 288.574V241.22C192.152 236.975 193.838 232.906 196.834 229.904C199.83 226.903 203.892 225.215 208.13 225.21H308.147C312.385 225.215 316.447 226.903 319.443 229.904C322.439 232.906 324.125 236.975 324.129 241.22V288.574C324.125 292.818 322.439 296.888 319.443 299.889C316.447 302.891 312.385 304.579 308.147 304.584V304.584Z" fill="#FFCC5F"/>
<path d="M477.159 304.584H377.841C373.633 304.579 369.599 302.891 366.624 299.889C363.649 296.888 361.975 292.818 361.97 288.574V241.22C361.975 236.975 363.649 232.906 366.624 229.904C369.599 226.903 373.633 225.215 377.841 225.21H477.159C481.367 225.215 485.401 226.903 488.376 229.904C491.351 232.906 493.025 236.975 493.03 241.22V288.574C493.025 292.818 491.351 296.888 488.376 299.889C485.401 302.891 481.367 304.579 477.159 304.584V304.584Z" fill="#FFCC5F"/>
<path d="M307.669 426.413H207.685C203.321 426.408 199.137 424.67 196.051 421.579C192.965 418.489 191.23 414.299 191.225 409.928V362.601C191.23 358.231 192.965 354.041 196.051 350.95C199.137 347.86 203.321 346.121 207.685 346.116H307.669C312.033 346.121 316.217 347.86 319.303 350.95C322.389 354.041 324.125 358.231 324.13 362.601V409.928C324.125 414.299 322.389 418.489 319.303 421.579C316.217 424.67 312.033 426.408 307.669 426.413V426.413Z" fill="#F2F2F2"/>
<path d="M647.315 426.413H547.331C542.967 426.408 538.783 424.67 535.697 421.579C532.611 418.489 530.875 414.299 530.87 409.928V362.601C530.875 358.231 532.611 354.041 535.697 350.95C538.783 347.86 542.967 346.121 547.331 346.116H647.315C651.679 346.121 655.863 347.86 658.949 350.95C662.035 354.041 663.77 358.231 663.775 362.601V409.928C663.77 414.299 662.035 418.489 658.949 421.579C655.863 424.67 651.679 426.408 647.315 426.413V426.413Z" fill="#F2F2F2"/>
<path d="M647.315 304.584H547.331C542.967 304.579 538.783 302.84 535.697 299.75C532.611 296.659 530.875 292.469 530.87 288.099V240.772C530.875 236.401 532.611 232.211 535.697 229.121C538.783 226.03 542.967 224.292 547.331 224.287H647.315C651.679 224.292 655.863 226.03 658.949 229.121C662.035 232.211 663.77 236.401 663.775 240.772V288.098C663.77 292.469 662.035 296.659 658.949 299.75C655.863 302.84 651.679 304.579 647.315 304.584Z" fill="#F2F2F2"/>
<path d="M258.139 291.662C273.176 291.662 285.366 279.679 285.366 264.897C285.366 250.115 273.176 238.131 258.139 238.131C243.101 238.131 230.911 250.115 230.911 264.897C230.911 279.679 243.101 291.662 258.139 291.662Z" fill="white"/>
<path d="M255.635 275.049C255.037 275.05 254.454 274.856 253.975 274.496L253.945 274.473L247.692 269.67C247.402 269.447 247.159 269.169 246.976 268.852C246.793 268.536 246.674 268.186 246.626 267.822C246.578 267.459 246.601 267.09 246.696 266.736C246.79 266.382 246.952 266.051 247.174 265.76C247.396 265.469 247.673 265.225 247.99 265.042C248.306 264.859 248.655 264.74 249.016 264.692C249.378 264.644 249.746 264.668 250.099 264.763C250.451 264.858 250.782 265.021 251.071 265.244L255.122 268.36L264.693 255.836C264.915 255.545 265.191 255.301 265.507 255.118C265.823 254.935 266.172 254.816 266.534 254.768C266.895 254.72 267.263 254.744 267.615 254.839C267.968 254.934 268.298 255.097 268.587 255.32L268.528 255.401L268.589 255.321C269.173 255.771 269.555 256.436 269.651 257.168C269.748 257.901 269.551 258.642 269.103 259.229L257.845 273.961C257.585 274.301 257.25 274.576 256.867 274.764C256.483 274.953 256.062 275.05 255.635 275.049V275.049Z" fill="#FFCC5F"/>
<path d="M477.97 426.413H377.953C373.715 426.408 369.653 424.72 366.657 421.719C363.661 418.717 361.975 414.648 361.97 410.403V363.049C361.975 358.805 363.661 354.735 366.657 351.734C369.653 348.732 373.715 347.044 377.953 347.039H477.97C482.208 347.044 486.27 348.732 489.266 351.734C492.262 354.735 493.948 358.805 493.952 363.049V410.403C493.948 414.648 492.262 418.717 489.266 421.719C486.27 424.72 482.208 426.408 477.97 426.413V426.413Z" fill="#FFCC5F"/>
<path d="M427.961 413.492C442.999 413.492 455.189 401.508 455.189 386.726C455.189 371.944 442.999 359.961 427.961 359.961C412.924 359.961 400.734 371.944 400.734 386.726C400.734 401.508 412.924 413.492 427.961 413.492Z" fill="white"/>
<path d="M425.458 396.879C424.859 396.88 424.277 396.686 423.798 396.325L423.768 396.303L417.515 391.499C417.225 391.277 416.982 390.999 416.799 390.682C416.616 390.365 416.497 390.015 416.449 389.652C416.401 389.289 416.424 388.92 416.519 388.566C416.613 388.212 416.775 387.88 416.997 387.589C417.219 387.299 417.496 387.055 417.812 386.871C418.129 386.688 418.477 386.569 418.839 386.521C419.201 386.473 419.569 386.497 419.922 386.592C420.274 386.687 420.605 386.851 420.894 387.074L424.945 390.19L434.516 377.665C434.738 377.375 435.014 377.131 435.33 376.948C435.646 376.765 435.995 376.646 436.357 376.598C436.718 376.55 437.086 376.574 437.438 376.668C437.791 376.763 438.121 376.926 438.41 377.149L438.351 377.23L438.412 377.15C438.996 377.601 439.378 378.265 439.474 378.998C439.571 379.731 439.374 380.472 438.926 381.059L427.668 395.791C427.408 396.13 427.073 396.405 426.69 396.594C426.306 396.782 425.885 396.88 425.458 396.879V396.879Z" fill="#FFCC5F"/>
<path d="M427.961 291.662C442.999 291.662 455.189 279.472 455.189 264.435C455.189 249.398 442.999 237.208 427.961 237.208C412.924 237.208 400.734 249.398 400.734 264.435C400.734 279.472 412.924 291.662 427.961 291.662Z" fill="white"/>
<path d="M425.457 275.049C424.858 275.05 424.275 274.856 423.796 274.496L423.767 274.473L417.513 269.67C416.928 269.22 416.545 268.556 416.449 267.823C416.352 267.09 416.549 266.348 416.998 265.762C417.446 265.175 418.108 264.791 418.838 264.694C419.569 264.597 420.308 264.795 420.893 265.244L424.943 268.36L434.515 255.836C434.737 255.545 435.014 255.301 435.33 255.118C435.646 254.935 435.995 254.816 436.356 254.768C436.718 254.72 437.086 254.744 437.438 254.839C437.79 254.934 438.121 255.097 438.41 255.32L438.351 255.401L438.412 255.321C438.996 255.771 439.378 256.436 439.474 257.168C439.571 257.901 439.374 258.642 438.926 259.229L427.667 273.961C427.407 274.301 427.072 274.576 426.689 274.764C426.305 274.953 425.884 275.05 425.457 275.049V275.049Z" fill="#FFCC5F"/>
</svg>
